<svg version="1.2" xmlns="http://www.w3.org/2000/svg" viewBox="0 0 3578 762" width="3578" height="762">
	<title>redbrick-full-svg</title>
	<style>
		.s0 { fill: #050505 } 
		.s1 { fill: #fefefe } 
		.s2 { fill: #a81e22 } 
		.s3 { fill: #8d8d8d } 
	</style>
	<g id="Layer 1">
		<g id="&lt;Group&gt;">
			<path id="&lt;Compound Path&gt;" fill-rule="evenodd" class="s0" d="m610.8 12l310.9 179.4 23.1 13.3v294.9l-27.5 12.2-541.3 240.3-21.5 9.6-20.4-11.8-310.9-179.4-23.2-13.3v-294.8l27.6-12.2 541.2-240.4 21.6-9.6zm-564.5 280.5v238l310.9 179.3 541.3-240.3v-238l-310.9-179.3z"/>
			<path id="&lt;Path&gt;" class="s1" d="m587.6 52.1l310.9 179.3v238.1l-541.3 240.3-310.9-179.4v-238z"/>
			<path id="&lt;Path&gt;" class="s1" d="m589 26.2l-10.8 4.8-541.3 240.3-13.7 6.1v15.1 237.9 13.4l11.6 6.7 310.9 179.4 10.1 5.8 10.8-4.7 541.3-240.4 13.8-6.1v-15-238-13.4l-11.6-6.7-310.9-179.3z"/>
			<path id="&lt;Path&gt;" class="s2" d="m357.9 458.3l526.1-235.2-296.4-171-527.5 234.2z"/>
			<path id="&lt;Path&gt;" class="s2" d="m368.8 478.8l-0.1 225.8 529.8-235.1v-227.5z"/>
			<path id="&lt;Path&gt;" class="s2" d="m345.5 478l-299.2-172.8v225.2l299.2 172.7z"/>
			<g id="&lt;Group&gt;">
				<path id="&lt;Compound Path&gt;" fill-rule="evenodd" class="s0" d="m1113.7 111.3c27.8-4.9 69.5-8.5 112.3-8.5 58.5 0 98.4 9.7 125.5 32.6 22.4 18.7 35 47.1 35 81.5 0 52.5-35.5 88.1-73.5 102v1.8c28.9 10.9 46.4 39.2 56.7 78.5 12.7 50.7 23.5 97.8 32 113.5h-76.7c-6-12.1-15.7-45.3-27.2-96-11.4-53.1-30.8-70-73-71.2h-37.4v167.2h-73.7zm73.7 179.9h44c50.1 0 81.5-26.6 81.5-67 0-44.7-31.4-65.2-79.7-65.2-23.5 0-38.6 1.8-45.8 3.6z"/>
				<path id="&lt;Compound Path&gt;" fill-rule="evenodd" class="s0" d="m1492.9 386.5c1.8 53.1 43.5 76.1 90.5 76.1 34.5 0 59.3-4.8 81.5-13.3l11 51.3c-25.5 10.3-60.5 18.8-102.7 18.8-95.3 0-151.5-59.3-151.5-149.2 0-81.4 49.5-158.1 143.7-158.1 96 0 126.7 78.5 126.7 143.1 0 13.8-1.2 24.7-2.4 31.3zm129.2-51.9c0.6-27.1-11.5-71.8-61-71.8-45.8 0-65.2 41.7-68.2 71.8z"/>
				<path id="&lt;Compound Path&gt;" fill-rule="evenodd" class="s0" d="m2014.2 84.1v345.9c0 30.2 1.2 62.8 2.4 82.7h-66.4l-3-46.5h-1.2c-17.5 32.6-53.1 53.2-96 53.2-70 0-125.5-59.8-125.5-150.4-0.6-98.4 60.9-156.9 131.5-156.9 40.5 0 69.5 16.8 82.7 38.6h1.3v-166.6zm-74.3 257.1c0-6-0.6-13.3-1.8-19.3-6.6-29-30.2-52.5-64-52.5-47.7 0-74.2 42.2-74.2 97.2 0 53.7 26.5 92.9 73.6 92.9 30.2 0 56.8-20.5 64-52.5 1.8-6.6 2.4-13.9 2.4-21.7z"/>
				<path id="&lt;Compound Path&gt;" fill-rule="evenodd" class="s0" d="m2080.2 84.1h74.3v175h1.1c18.1-28.3 50.1-47.1 94.2-47.1 71.8 0 123.2 59.8 122.6 149.1 0 105.7-67 158.2-133.4 158.2-38.1 0-71.9-14.5-93-50.7h-1.2l-3.6 44h-63.4c1.2-19.9 2.4-52.5 2.4-82.7zm74.3 307.3c0 6 0.5 12.1 1.8 17.5 7.8 29.6 33.8 51.9 65.8 51.9 46.5 0 74.8-37.4 74.8-96.6 0-51.9-24.7-94.1-74.2-94.1-30.2 0-57.4 21.7-65.8 54.3-1.2 5.4-2.4 12.1-2.4 19.3z"/>
				<path id="&lt;Compound Path&gt;" class="s0" d="m2421.4 313.5c0-39.9-0.6-68.3-2.4-94.8h64.6l2.4 56.1h2.4c14.5-41.6 48.9-62.8 80.3-62.8 7.3 0 11.5 0.6 17.5 1.9v70c-6-1.2-12.7-2.4-21.7-2.4-35.6 0-59.8 22.9-66.4 56.1-1.2 6.6-2.4 14.5-2.4 23v152h-74.3z"/>
				<path id="&lt;Compound Path&gt;" class="s0" d="m2701.1 136.6c0 22.3-16.3 39.8-42.3 39.8-24.7 0-41-17.5-41-39.8 0-22.9 16.9-40.5 41.6-40.5 25.4 0 41.1 17.6 41.7 40.5zm-79.1 376v-293.9h74.8v293.9z"/>
				<path id="&lt;Compound Path&gt;" class="s0" d="m2978.3 503.6c-15.6 7.3-46.4 15.8-83.3 15.8-91.7-0.1-151.5-59.3-151.5-150.4 0-88.1 60.4-157 163.6-157 27.2 0 55 6.1 71.8 13.9l-13.2 55.6c-12.1-5.5-29.6-11.5-56.2-11.5-56.7 0-90.5 41.6-89.9 95.4 0 60.3 39.2 94.7 89.9 94.7 26 0 44.1-5.4 58.6-11.4z"/>
				<path id="&lt;Compound Path&gt;" class="s0" d="m3092.7 347.9h1.2c7.2-11.5 15.6-24.1 23.5-34.4l71.2-94.8h89.3l-108.6 120.2 124.3 173.8h-91.2l-84.4-129.8-25.3 29.6v100.2h-74.3v-428.6h74.3z"/>
			</g>
			<g id="&lt;Group&gt;">
				<path id="&lt;Compound Path&gt;" fill-rule="evenodd" class="s3" d="m1115 585.3c7.8-1.2 17-2.1 27.1-2.1 18.4 0 31.4 4.3 40.1 12.4 8.8 8 13.9 19.5 13.9 35.5 0 16.1-5 29.3-14.2 38.4-9.3 9.3-24.5 14.3-43.7 14.3-9.1 0-16.8-0.5-23.2-1.2zm12.7 87.4c3.3 0.6 8 0.8 13 0.8 27.3 0 42-15.3 42-42 0.2-23.3-13-38.1-40-38.1-6.6 0-11.6 0.5-15 1.3z"/>
				<path id="&lt;Compound Path&gt;" class="s3" d="m1281.5 679.6c-4.6 2.4-14 4.9-26 4.9-28 0-48.9-17.8-48.9-50.3 0-30.9 21-51.9 51.7-51.9 12.3 0 20.1 2.7 23.4 4.4l-3 10.4c-4.9-2.3-11.8-4.1-20-4.1-23.2 0-38.6 14.8-38.6 40.8 0 24.2 14 39.8 38 39.8 7.8 0 15.7-1.6 20.9-4.1z"/>
				<path id="&lt;Compound Path&gt;" class="s3" d="m1307.5 584v58.5c0 22.1 9.8 31.5 23 31.5 14.8 0 24.1-9.7 24.1-31.5v-58.5h12.9v57.6c0 30.4-16 42.9-37.4 42.9-20.2 0-35.5-11.6-35.5-42.3v-58.2z"/>
				<path id="&lt;Compound Path&gt;" class="s3" d="m1405.8 581.3c-3.4 12.2-9.7 28-13.8 34.8l-8.2 0.8c3.2-8.5 7-23.7 8.6-34.2z"/>
				<path id="&lt;Compound Path&gt;" class="s3" d="m1411.5 669.6c3.8 2.5 10.6 5.1 17 5.1 9.5 0 13.8-4.6 13.8-10.5 0-6.1-3.6-9.5-13.2-13-12.7-4.6-18.8-11.6-18.8-20.1 0-11.5 9.3-20.9 24.6-20.9 7.1 0 13.4 2 17.4 4.4l-3.2 9.4c-2.8-1.8-7.9-4.1-14.5-4.1-7.7 0-11.9 4.4-11.9 9.6 0 5.9 4.2 8.6 13.5 12.1 12.3 4.7 18.6 10.8 18.6 21.4 0 12.5-9.7 21.4-26.6 21.4-7.7 0-14.9-2-19.9-5z"/>
				<path id="&lt;Compound Path&gt;" class="s3" d="m1503 682.9v-98.9h13.9l31.7 50c7.3 11.6 13.1 22 17.8 32.1l0.2-0.1c-1.1-13.2-1.4-25.3-1.4-40.7v-41.4h12v98.9h-13l-31.4-50.2c-6.9-11-13.5-22.3-18.5-33l-0.4 0.2c0.7 12.4 1 24.3 1 40.8v42.2z"/>
				<path id="&lt;Compound Path&gt;" fill-rule="evenodd" class="s3" d="m1605.8 649.7c0.3 17.5 11.4 24.6 24.3 24.6 9.2 0 14.8-1.6 19.7-3.7l2.2 9.3c-4.5 2-12.3 4.5-23.7 4.5-21.8 0-34.9-14.5-34.9-35.9 0-21.4 12.6-38.3 33.3-38.3 23.2 0 29.4 20.4 29.4 33.4 0 2.7-0.3 4.7-0.5 6.1zm37.9-9.3c0.1-8.2-3.4-21-17.9-21-13.1 0-18.8 12.1-19.8 21z"/>
				<path id="&lt;Compound Path&gt;" class="s3" d="m1686.8 594.8v17h18.5v9.9h-18.5v38.2c0 8.8 2.5 13.8 9.7 13.8 3.5 0 5.5-0.3 7.5-0.9l0.5 9.7c-2.5 1-6.4 1.9-11.4 1.9-6 0-10.9-2-14-5.5-3.7-3.9-5-10.1-5-18.5v-38.7h-11v-9.9h11v-13z"/>
				<path id="&lt;Compound Path&gt;" class="s3" d="m1727 611.8l9.4 36.1c2.1 8 3.9 15.3 5.3 22.6h0.4c1.6-7.1 4-14.8 6.3-22.6l11.6-36.1h10.9l11 35.5c2.6 8.5 4.7 16 6.3 23.2h0.5c1.1-7.2 3-14.7 5.4-23l10.1-35.7h12.8l-22.9 71h-11.8l-10.8-33.9c-2.5-7.9-4.6-15-6.3-23.3h-0.3c-1.8 8.5-4 15.8-6.5 23.5l-11.4 33.7h-11.8l-21.4-71z"/>
				<path id="&lt;Compound Path&gt;" fill-rule="evenodd" class="s3" d="m1891.8 646.8c0 26.2-18.2 37.7-35.4 37.7-19.2 0-34.1-14.1-34.1-36.6 0-23.7 15.6-37.7 35.3-37.7 20.3 0 34.2 14.9 34.2 36.6zm-56.4 0.7c0 15.6 8.9 27.3 21.6 27.3 12.3 0 21.6-11.6 21.6-27.6 0-12-6-27.3-21.3-27.3-15.3 0-21.9 14.1-21.9 27.6z"/>
				<path id="&lt;Compound Path&gt;" class="s3" d="m1907 634c0-8.4-0.2-15.6-0.6-22.2h11.3l0.5 14h0.5c3.3-9.6 11-15.6 19.7-15.6 1.4 0 2.5 0.2 3.7 0.5v12.1c-1.4-0.2-2.7-0.4-4.4-0.4-9.1 0-15.6 6.9-17.4 16.6-0.3 1.7-0.6 3.8-0.6 6v37.9h-12.7z"/>
				<path id="&lt;Compound Path&gt;" class="s3" d="m1966.6 644.4h0.3c1.8-2.5 4.2-5.6 6.3-8l20.8-24.6h15.6l-27.5 29.2 31.3 41.9h-15.7l-24.5-34.1-6.6 7.4v26.7h-12.8v-104.2h12.8z"/>
				<path id="&lt;Compound Path&gt;" class="s3" d="m2037.8 591.9c0.1 4.4-3.1 7.9-8.2 7.9-4.6 0-7.8-3.5-7.8-7.9 0-4.6 3.4-8.1 8-8.1 4.9 0 8 3.5 8 8.1zm-14.4 91v-71.1h12.9v71.1z"/>
				<path id="&lt;Compound Path&gt;" class="s3" d="m2055.8 631c0-7.3-0.2-13.3-0.6-19.2h11.5l0.7 11.7h0.3c3.5-6.7 11.7-13.3 23.5-13.3 9.8 0 25 5.8 25 30.2v42.4h-12.9v-40.9c0-11.5-4.2-21-16.4-21-8.5 0-15.1 6-17.3 13.2-0.6 1.6-0.9 3.8-0.9 6v42.7h-12.9z"/>
				<path id="&lt;Compound Path&gt;" fill-rule="evenodd" class="s3" d="m2196.7 672.5c0 16.3-3.2 26.3-10.1 32.5-6.9 6.5-16.9 8.5-25.8 8.5-8.5 0-17.9-2-23.6-5.9l3.2-9.8c4.6 3 12 5.6 20.8 5.6 13.2 0 22.9-6.9 22.9-24.8v-8h-0.3c-3.9 6.7-11.6 11.9-22.6 11.9-17.6 0-30.2-14.9-30.2-34.6 0-24 15.7-37.7 32-37.7 12.3 0 19 6.4 22.1 12.3h0.3l0.6-10.7h11.3c-0.3 5.1-0.6 10.9-0.6 19.5zm-12.8-32.7c0.1-2.2-0.1-4.1-0.7-5.9-2.3-7.5-8.7-13.6-18.1-13.6-12.3 0-21.1 10.4-21.1 26.8 0 14 7.1 25.6 21 25.6 7.9 0 15.1-5 17.9-13.3 0.7-2.2 1.1-4.6 1.1-6.9z"/>
				<path id="&lt;Compound Path&gt;" class="s3" d="m2247.9 667.3c5.7 3.5 14.1 6.5 22.9 6.5 13.1 0 20.7-6.9 20.7-16.9 0-9.3-5.3-14.5-18.6-19.7-16.2-5.7-26.2-14.1-26.2-28 0-15.4 12.8-26.8 32-26.8 10.2 0 17.5 2.3 21.9 4.8l-3.5 10.4c-3.3-1.8-9.9-4.7-18.9-4.7-13.5 0-18.5 8.1-18.5 14.8 0 9.3 6 13.8 19.6 19.1 16.7 6.5 25.3 14.5 25.3 29.1 0 15.2-11.4 28.6-34.7 28.6-9.6 0-19.9-2.9-25.2-6.5z"/>
				<path id="&lt;Compound Path&gt;" fill-rule="evenodd" class="s3" d="m2385 646.8c0 26.2-18.2 37.7-35.3 37.7-19.2 0-34.1-14.1-34.1-36.6 0-23.7 15.6-37.7 35.2-37.7 20.4 0 34.2 14.9 34.2 36.6zm-56.3 0.7c0 15.6 8.9 27.3 21.5 27.3 12.4 0 21.6-11.6 21.6-27.6 0-12-6-27.3-21.2-27.3-15.4 0-21.9 14.1-21.9 27.6z"/>
				<path id="&lt;Compound Path&gt;" class="s3" d="m2451.7 680.2c-3.3 1.8-10.8 4.3-20.4 4.3-21.4 0-35.4-14.7-35.4-36.4 0-21.9 15-37.8 38.2-37.8 7.7 0 14.4 1.9 17.9 3.7l-2.9 10c-3.1-1.8-7.9-3.4-15-3.4-16.3 0-25.1 12-25.1 26.9 0 16.4 10.6 26.5 24.7 26.5 7.3 0 12.2-1.9 15.8-3.5z"/>
				<path id="&lt;Compound Path&gt;" class="s3" d="m2479.1 591.9c0.2 4.4-3.1 7.9-8.2 7.9-4.6 0-7.8-3.5-7.8-7.9 0-4.6 3.3-8.1 8.1-8.1 4.8 0 7.9 3.5 7.9 8.1zm-14.4 91v-71.1h12.9v71.1z"/>
				<path id="&lt;Compound Path&gt;" fill-rule="evenodd" class="s3" d="m2505 649.7c0.3 17.5 11.4 24.6 24.3 24.6 9.3 0 14.9-1.6 19.7-3.7l2.2 9.3c-4.5 2-12.3 4.5-23.6 4.5-21.9 0-34.9-14.5-34.9-35.9 0-21.4 12.6-38.3 33.3-38.3 23.2 0 29.3 20.4 29.3 33.4 0 2.7-0.3 4.7-0.4 6.1zm37.8-9.3c0.2-8.2-3.3-21-17.9-21-13 0-18.7 12.1-19.8 21z"/>
				<path id="&lt;Compound Path&gt;" class="s3" d="m2586.1 594.8v17h18.4v9.9h-18.4v38.2c0 8.8 2.4 13.8 9.6 13.8 3.6 0 5.6-0.3 7.5-0.9l0.6 9.7c-2.5 1-6.5 1.9-11.4 1.9-6.1 0-10.9-2-14-5.5-3.6-3.9-5-10.1-5-18.5v-38.7h-11v-9.9h11v-13z"/>
				<path id="&lt;Compound Path&gt;" class="s3" d="m2626.4 611.8l15.6 42c1.6 4.7 3.4 10.3 4.5 14.5h0.3c1.4-4.3 2.9-9.6 4.6-14.8l14.1-41.7h13.7l-19.4 50.6c-9.2 24.4-15.6 36.9-24.4 44.5-6.3 5.6-12.6 7.8-15.8 8.4l-3.3-10.9c3.3-1 7.5-3 11.3-6.3 3.5-2.8 8-7.7 10.9-14.3 0.6-1.4 1.1-2.4 1.1-3.1 0-0.8-0.4-1.8-1-3.4l-26.2-65.5z"/>
			</g>
			<g id="&lt;Group&gt;">
				<path id="&lt;Compound Path&gt;" class="s3" d="m3323.2 516.7c-3.4 0-5.8-2.7-5.8-6.3 0-3.7 2.5-6.2 6-6.2 3.4 0 5.8 2.5 5.8 6.2 0 3.6-2.3 6.3-5.9 6.3z"/>
				<path id="&lt;Compound Path&gt;" fill-rule="evenodd" class="s3" d="m3381.7 444.9v58.3c0 4.2 0.1 9.1 0.4 12.4h-7.8l-0.4-8.4h-0.2c-2.7 5.4-8.6 9.5-16.5 9.5-11.6 0-20.6-9.9-20.6-24.5-0.1-16 9.9-25.9 21.6-25.9 7.4 0 12.4 3.5 14.6 7.4h0.2v-28.8zm-8.8 42.1c0-1.1-0.1-2.6-0.4-3.7-1.3-5.5-6.1-10.1-12.6-10.1-9.1 0-14.5 7.9-14.5 18.6 0 9.8 4.8 17.8 14.3 17.8 5.8 0 11.2-3.9 12.8-10.4 0.3-1.2 0.4-2.4 0.4-3.8z"/>
				<path id="&lt;Compound Path&gt;" class="s3" d="m3430.6 513.8c-2.3 1.2-7.3 2.9-13.8 2.9-14.6 0-24.1-10-24.1-24.8 0-14.7 10.2-25.6 25.9-25.6 5.2 0 9.8 1.3 12.2 2.5l-1.9 6.8c-2.1-1.2-5.5-2.3-10.2-2.3-11.1 0-17 8.2-17 18.3 0 11.1 7.1 18 16.7 18 5 0 8.3-1.3 10.8-2.4z"/>
				<path id="&lt;Compound Path&gt;" class="s3" d="m3481.3 502.5c-0.1 4.9 0 9.3 0.3 13.1h-7.8l-0.5-7.9h-0.2c-2.3 3.9-7.3 9-15.9 9-7.6 0-16.6-4.2-16.6-21.1v-28.2h8.8v26.7c0 9.2 2.8 15.3 10.7 15.3 5.9 0 10-4.1 11.6-7.9 0.5-1.3 0.8-2.9 0.8-4.5v-29.6h8.8z"/>
				<path id="&lt;Compound Path&gt;" class="s3" d="m3498.7 516.7c-3.4 0-5.8-2.7-5.8-6.3 0-3.7 2.5-6.2 6-6.2 3.5 0 5.9 2.5 5.9 6.2 0 3.6-2.4 6.3-6 6.3z"/>
				<path id="&lt;Compound Path&gt;" class="s3" d="m3525.3 453.8c0.1 3-2.1 5.4-5.5 5.4-3.1 0-5.3-2.4-5.3-5.4 0-3.1 2.3-5.5 5.5-5.5 3.2 0 5.3 2.4 5.3 5.5zm-9.7 61.8v-48.3h8.7v48.3z"/>
				<path id="&lt;Compound Path&gt;" fill-rule="evenodd" class="s3" d="m3543.8 493c0.2 11.9 7.8 16.8 16.6 16.8 6.2 0 10-1.1 13.3-2.5l1.5 6.3c-3.1 1.4-8.4 3.1-16 3.1-14.9 0-23.8-9.9-23.8-24.5 0-14.5 8.6-26 22.7-26 15.7 0 19.9 13.9 19.9 22.8 0 1.8-0.2 3.1-0.3 4zm25.7-6.2c0.1-5.6-2.3-14.3-12.2-14.3-8.8 0-12.7 8.2-13.4 14.3z"/>
			</g>
		</g>
	</g>
</svg>